<mxfile host="app.diagrams.net" agent="Mozilla/5.0 (Windows NT 10.0; Win64; x64) AppleWebKit/537.36 (KHTML, like Gecko) Chrome/127.0.0.0 Safari/537.36" version="24.7.7">
  <diagram name="Page-1" id="5fNuB7VoFJG4EQxmjTcY">
    <mxGraphModel dx="1900" dy="583" grid="1" gridSize="10" guides="1" tooltips="1" connect="1" arrows="1" fold="1" page="1" pageScale="1" pageWidth="850" pageHeight="1100" math="0" shadow="0">
      <root>
        <mxCell id="0" />
        <mxCell id="1" parent="0" />
        <mxCell id="NsImHfb878_ePxtY_0pk-1" value="" style="html=1;verticalLabelPosition=bottom;align=center;labelBackgroundColor=#ffffff;verticalAlign=top;strokeWidth=2;strokeColor=#0080F0;shadow=0;dashed=0;shape=mxgraph.ios7.icons.bag;" parent="1" vertex="1">
          <mxGeometry x="490" y="160" width="250" height="200" as="geometry" />
        </mxCell>
        <mxCell id="NsImHfb878_ePxtY_0pk-2" value="" style="sketch=0;aspect=fixed;pointerEvents=1;shadow=0;dashed=0;html=1;strokeColor=none;labelPosition=center;verticalLabelPosition=bottom;verticalAlign=top;align=center;fillColor=#00188D;shape=mxgraph.mscae.enterprise.lock" parent="1" vertex="1">
          <mxGeometry x="595.5" y="220" width="39" height="50" as="geometry" />
        </mxCell>
        <mxCell id="NsImHfb878_ePxtY_0pk-4" value="" style="image;sketch=0;aspect=fixed;html=1;points=[];align=center;fontSize=12;image=img/lib/mscae/Key.svg;" parent="1" vertex="1">
          <mxGeometry x="90" y="185" width="74.4" height="120" as="geometry" />
        </mxCell>
        <mxCell id="NsImHfb878_ePxtY_0pk-5" value="" style="html=1;verticalLabelPosition=bottom;align=center;labelBackgroundColor=#ffffff;verticalAlign=top;strokeWidth=2;strokeColor=#0080F0;shadow=0;dashed=0;shape=mxgraph.ios7.icons.user;" parent="1" vertex="1">
          <mxGeometry x="92.2" y="320" width="70" height="60" as="geometry" />
        </mxCell>
        <mxCell id="NsImHfb878_ePxtY_0pk-6" style="edgeStyle=orthogonalEdgeStyle;rounded=0;orthogonalLoop=1;jettySize=auto;html=1;entryX=0.04;entryY=0.425;entryDx=0;entryDy=0;entryPerimeter=0;" parent="1" source="NsImHfb878_ePxtY_0pk-4" target="NsImHfb878_ePxtY_0pk-1" edge="1">
          <mxGeometry relative="1" as="geometry" />
        </mxCell>
        <mxCell id="NsImHfb878_ePxtY_0pk-7" value="" style="whiteSpace=wrap;html=1;aspect=fixed;fillColor=#dae8fc;gradientColor=#7ea6e0;strokeColor=#6c8ebf;" parent="1" vertex="1">
          <mxGeometry x="490" y="440" width="200" height="200" as="geometry" />
        </mxCell>
        <mxCell id="NsImHfb878_ePxtY_0pk-8" value="&lt;b&gt;Public&lt;br&gt;Key&lt;/b&gt;" style="ellipse;whiteSpace=wrap;html=1;aspect=fixed;fillColor=#f8cecc;gradientColor=#ea6b66;strokeColor=#b85450;" parent="1" vertex="1">
          <mxGeometry x="550" y="490" width="80" height="80" as="geometry" />
        </mxCell>
        <mxCell id="NsImHfb878_ePxtY_0pk-10" style="edgeStyle=orthogonalEdgeStyle;rounded=0;orthogonalLoop=1;jettySize=auto;html=1;" parent="1" source="NsImHfb878_ePxtY_0pk-9" target="NsImHfb878_ePxtY_0pk-7" edge="1">
          <mxGeometry relative="1" as="geometry" />
        </mxCell>
        <mxCell id="NsImHfb878_ePxtY_0pk-9" value="" style="image;sketch=0;aspect=fixed;html=1;points=[];align=center;fontSize=12;image=img/lib/mscae/Key.svg;" parent="1" vertex="1">
          <mxGeometry x="100" y="480" width="74.4" height="120" as="geometry" />
        </mxCell>
        <mxCell id="NsImHfb878_ePxtY_0pk-11" value="" style="html=1;verticalLabelPosition=bottom;align=center;labelBackgroundColor=#ffffff;verticalAlign=top;strokeWidth=2;strokeColor=#0080F0;shadow=0;dashed=0;shape=mxgraph.ios7.icons.user;" parent="1" vertex="1">
          <mxGeometry x="104.4" y="610" width="70" height="60" as="geometry" />
        </mxCell>
        <mxCell id="NsImHfb878_ePxtY_0pk-12" value="" style="sketch=0;points=[[0,0,0],[0.25,0,0],[0.5,0,0],[0.75,0,0],[1,0,0],[0,1,0],[0.25,1,0],[0.5,1,0],[0.75,1,0],[1,1,0],[0,0.25,0],[0,0.5,0],[0,0.75,0],[1,0.25,0],[1,0.5,0],[1,0.75,0]];points=[[0,0,0],[0.25,0,0],[0.5,0,0],[0.75,0,0],[1,0,0],[0,1,0],[0.25,1,0],[0.5,1,0],[0.75,1,0],[1,1,0],[0,0.25,0],[0,0.5,0],[0,0.75,0],[1,0.25,0],[1,0.5,0],[1,0.75,0]];outlineConnect=0;fontColor=#232F3E;fillColor=#E7157B;strokeColor=#ffffff;dashed=0;verticalLabelPosition=bottom;verticalAlign=top;align=center;html=1;fontSize=12;fontStyle=0;aspect=fixed;shape=mxgraph.aws4.resourceIcon;resIcon=mxgraph.aws4.command_line_interface;" parent="1" vertex="1">
          <mxGeometry y="511" width="78" height="78" as="geometry" />
        </mxCell>
        <mxCell id="NsImHfb878_ePxtY_0pk-13" value="&lt;b&gt;Server&lt;/b&gt;" style="whiteSpace=wrap;html=1;aspect=fixed;fillColor=#dae8fc;gradientColor=#7ea6e0;strokeColor=#6c8ebf;" parent="1" vertex="1">
          <mxGeometry x="490" y="810" width="200" height="200" as="geometry" />
        </mxCell>
        <mxCell id="NsImHfb878_ePxtY_0pk-17" style="edgeStyle=orthogonalEdgeStyle;rounded=0;orthogonalLoop=1;jettySize=auto;html=1;entryX=0;entryY=0.5;entryDx=0;entryDy=0;" parent="1" source="NsImHfb878_ePxtY_0pk-14" target="NsImHfb878_ePxtY_0pk-13" edge="1">
          <mxGeometry relative="1" as="geometry" />
        </mxCell>
        <mxCell id="NsImHfb878_ePxtY_0pk-14" value="" style="image;html=1;image=img/lib/clip_art/networking/Firewall_02_128x128.png" parent="1" vertex="1">
          <mxGeometry x="220" y="810" width="100" height="200" as="geometry" />
        </mxCell>
        <mxCell id="NsImHfb878_ePxtY_0pk-16" style="edgeStyle=orthogonalEdgeStyle;rounded=0;orthogonalLoop=1;jettySize=auto;html=1;entryX=0;entryY=0.5;entryDx=0;entryDy=0;" parent="1" source="NsImHfb878_ePxtY_0pk-15" target="NsImHfb878_ePxtY_0pk-14" edge="1">
          <mxGeometry relative="1" as="geometry" />
        </mxCell>
        <mxCell id="NsImHfb878_ePxtY_0pk-15" value="" style="html=1;verticalLabelPosition=bottom;align=center;labelBackgroundColor=#ffffff;verticalAlign=top;strokeWidth=2;strokeColor=#0080F0;shadow=0;dashed=0;shape=mxgraph.ios7.icons.user;" parent="1" vertex="1">
          <mxGeometry x="-90" y="835" width="130" height="150" as="geometry" />
        </mxCell>
        <mxCell id="NsImHfb878_ePxtY_0pk-18" value="&lt;b&gt;Security Group&lt;/b&gt;" style="text;html=1;align=center;verticalAlign=middle;resizable=0;points=[];autosize=1;strokeColor=none;fillColor=none;" parent="1" vertex="1">
          <mxGeometry x="215" y="985" width="110" height="30" as="geometry" />
        </mxCell>
      </root>
    </mxGraphModel>
  </diagram>
</mxfile>
